<svg id="Layer_5" enable-background="new 0 0 64 64" height="512" viewBox="0 0 64 64" width="512" xmlns="http://www.w3.org/2000/svg"><path d="m12.08 44.93c3.46 3.73 8.42 6.07 13.92 6.07h-24v-6h10z" fill="#fcd770"/><path d="m39.85 45h12.15v-5l10 8-10 8v-5h-26c-5.5 0-10.46-2.34-13.92-6.07-2.32-2.5-3.97-5.6-4.68-9.06l-3.4-.87v-6l3.39-.86c.5-2.38 1.44-4.59 2.73-6.56l-1.8-3.02 4.24-4.24 3.02 1.8c1.97-1.29 4.18-2.23 6.56-2.73l.86-3.39h6l.86 3.39c2.38.5 4.59 1.44 6.56 2.73l3.02-1.8 4.24 4.24-1.8 3.02c1.29 1.97 2.23 4.18 2.73 6.56l3.39.86v6l-3.4.88c-.72 3.48-2.4 6.62-4.75 9.12z" fill="#fcd770"/><path d="m26 19c7.18 0 13 5.82 13 13s-5.82 13-13 13-13-5.82-13-13 5.82-13 13-13z" fill="#e6e9ed"/><path d="m27.41 33.41c-.36.37-.86.59-1.41.59-1.1 0-2-.9-2-2s.9-2 2-2 2 .9 2 2c0 .55-.22 1.05-.59 1.41z" fill="#ff826e"/><path d="m63.601 48-12.601-10.081v6.081h-9.012c1.635-2.176 2.818-4.657 3.455-7.306l3.557-.92v-7.553l-3.552-.899c-.487-2.028-1.29-3.959-2.395-5.758l1.882-3.157-5.344-5.343-3.157 1.881c-1.798-1.104-3.729-1.908-5.757-2.395l-.899-3.55h-7.557l-.899 3.552c-2.028.487-3.959 1.29-5.757 2.395l-3.157-1.881-5.344 5.343 1.882 3.157c-1.104 1.798-1.908 3.73-2.395 5.758l-3.551.898v7.555l3.554.907c.65 2.708 1.856 5.18 3.469 7.316h-9.023v8h25 25v6.081zm-60.601 2v-4h8.762c1.617 1.638 3.504 2.994 5.585 4zm23 0c-8.495 0-15.907-6.029-17.625-14.335l-.127-.612-3.248-.83v-4.445l3.246-.821.127-.614c.456-2.208 1.325-4.298 2.583-6.212l.344-.523-1.72-2.886 3.142-3.142 2.886 1.721.523-.344c1.914-1.258 4.004-2.127 6.212-2.583l.614-.127.821-3.247h4.443l.821 3.246.614.127c2.208.456 4.298 1.325 6.212 2.583l.523.344 2.886-1.721 3.142 3.142-1.72 2.886.344.523c1.258 1.914 2.127 4.004 2.583 6.212l.127.614 3.247.822v4.447l-3.251.841-.126.609c-.643 3.096-2.103 5.961-4.22 8.324h-6.228c4.08-2.448 6.825-6.903 6.825-11.999 0-7.72-6.28-14-14-14s-14 6.28-14 14 6.28 14 14 14h27v-3.919l7.399 5.919-7.399 5.919v-3.919zm0-6c-6.617 0-12-5.383-12-12s5.383-12 12-12 12 5.383 12 12-5.383 12-12 12z"/><path d="m17.26 36.862c.361.647.794 1.254 1.287 1.805l1.49-1.334c-.395-.441-.742-.927-1.03-1.445z"/><path d="m18.016 32.507-1.996.123c.046.741.174 1.476.383 2.186l1.919-.562c-.166-.567-.269-1.155-.306-1.747z"/><path d="m18.571 29.023-1.857-.742c-.275.688-.473 1.407-.59 2.137l1.976.314c.092-.583.251-1.158.471-1.709z"/><path d="m29 32c0-1.302-.839-2.402-2-2.816v-7.184h-2v7.184c-1.161.414-2 1.514-2 2.816 0 1.654 1.346 3 3 3 .462 0 .894-.113 1.285-.301l3.008 3.008 1.414-1.414-3.008-3.008c.188-.391.301-.823.301-1.285zm-3 1c-.551 0-1-.449-1-1s.449-1 1-1 1 .449 1 1-.449 1-1 1z"/></svg>